<?xml version="1.0" encoding="UTF-8" standalone="no"?>
<svg
   xmlns:dc="http://purl.org/dc/elements/1.1/"
   xmlns:cc="http://creativecommons.org/ns#"
   xmlns:rdf="http://www.w3.org/1999/02/22-rdf-syntax-ns#"
   xmlns:svg="http://www.w3.org/2000/svg"
   xmlns="http://www.w3.org/2000/svg"
   viewBox="0 0 93.333329 86.217949"
   height="86.217949"
   width="93.333328"
   xml:space="preserve"
   id="svg2"
   version="1.1"><metadata
     id="metadata8"><rdf:RDF><cc:Work
         rdf:about=""><dc:format>image/svg+xml</dc:format><dc:type
           rdf:resource="http://purl.org/dc/dcmitype/StillImage" /><dc:title></dc:title></cc:Work></rdf:RDF></metadata><defs
     id="defs6" /><g
     transform="matrix(1.3333333,0,0,-1.3333333,-477.74265,596.56932)"
     id="g10"><g
       transform="scale(0.1)"
       id="g12"><path
         id="path30"
         style="fill:#56a7d5;fill-opacity:1;fill-rule:nonzero;stroke:none"
         d="m 3948.26,3925.43 c 0,0 122.31,153.84 57.31,333.84 0,0 155.66,-155.17 79.08,-333.84 0,0 -81.7,-27.66 -136.39,0" /><path
         id="path32"
         style="fill:#6cbee7;fill-opacity:1;fill-rule:nonzero;stroke:none"
         d="m 3898.07,3936.77 c 0,0 215,282.5 -77.5,537.5 0,0 127.5,-312.5 -237.5,-607.5 0,0 181.71,2.14 335,-30 235,-49.27 355,112.5 365,205 0,0 -127.5,-177.5 -385,-105" /></g></g></svg>