<?xml version="1.0" encoding="UTF-8"?>
<!-- Generator: Adobe Illustrator 20.1.0, SVG Export Plug-In . SVG Version: 6.00 Build 0)  -->
<svg version="1.1" xmlns="http://www.w3.org/2000/svg" xmlns:xlink="http://www.w3.org/1999/xlink" x="0px" y="0px" viewBox="0 0 841.9 595.3" style="enable-background:new 0 0 841.9 595.3;" xml:space="preserve">
<style type="text/css">
	.st0{fill:none;}
	.st1{fill:#00B4D5;}
</style>
<g id="Logo">
	<g>
		<g>
			<rect x="128.7" y="18.8" class="st0" width="583.1" height="396.5"/>
		</g>
		<g>
			<g>
				<g>
					<path d="M200.7,236.2v32.7h-7.2v-32.7H200.7z"/>
					<path d="M216.8,236.2l7.6,22.5h0.1l7.2-22.5h10.1v32.7h-6.7v-23.2h-0.1l-8,23.2h-5.5l-8-22.9h-0.1v22.9h-6.7v-32.7H216.8z"/>
					<path d="M245.1,242.3v-6h26.8v6H262v26.6h-7.2v-26.6H245.1z"/>
					<path d="M304.6,236.2l12.2,32.7h-7.5l-2.5-7.3h-12.2l-2.6,7.3h-7.2l12.4-32.7H304.6z M305,256.3l-4.1-12h-0.1l-4.3,12H305z"/>
					<path d="M330.9,245.2v4.3h-4.8v11.7c0,1.1,0.2,1.8,0.5,2.2s1.1,0.5,2.2,0.5c0.4,0,0.7,0,1.1,0c0.3,0,0.7-0.1,1-0.1v5       c-0.5,0.1-1.2,0.2-1.8,0.2c-0.7,0-1.3,0-2,0c-1,0-2-0.1-2.9-0.2c-0.9-0.1-1.7-0.4-2.4-0.8s-1.2-1-1.6-1.7       c-0.4-0.7-0.6-1.7-0.6-2.9v-14h-3.9v-4.3h3.9v-7.1h6.5v7.1H330.9z"/>
					<path d="M340.8,236.2v32.7h-6.5v-32.7H340.8z"/>
					<path d="M345.5,252.5c0.1-1.5,0.5-2.8,1.1-3.8c0.7-1,1.5-1.8,2.6-2.4c1-0.6,2.2-1,3.5-1.3c1.3-0.3,2.6-0.4,3.9-0.4       c1.2,0,2.4,0.1,3.6,0.3c1.2,0.2,2.3,0.5,3.3,1c1,0.5,1.8,1.2,2.5,2s1,2,1,3.5v12.3c0,1.1,0.1,2.1,0.2,3.1       c0.1,1,0.3,1.7,0.6,2.2h-6.6c-0.1-0.4-0.2-0.7-0.3-1.1c-0.1-0.4-0.1-0.8-0.2-1.2c-1,1.1-2.3,1.8-3.7,2.2       c-1.4,0.4-2.8,0.6-4.3,0.6c-1.1,0-2.2-0.1-3.2-0.4c-1-0.3-1.8-0.7-2.6-1.3c-0.7-0.6-1.3-1.3-1.7-2.2c-0.4-0.9-0.6-1.9-0.6-3.2       c0-1.3,0.2-2.4,0.7-3.3s1.1-1.6,1.8-2.1c0.7-0.5,1.6-0.9,2.6-1.2c1-0.3,1.9-0.5,2.9-0.6c1-0.2,1.9-0.3,2.9-0.4       c0.9-0.1,1.8-0.2,2.5-0.4c0.7-0.2,1.3-0.5,1.7-0.8c0.4-0.4,0.6-0.9,0.6-1.5c0-0.7-0.1-1.3-0.3-1.7c-0.2-0.4-0.5-0.7-0.9-1       c-0.4-0.2-0.8-0.4-1.3-0.5c-0.5-0.1-1-0.1-1.6-0.1c-1.3,0-2.3,0.3-3,0.8s-1.2,1.5-1.3,2.7H345.5z M360.6,257.3       c-0.3,0.2-0.6,0.4-1,0.6c-0.4,0.1-0.9,0.3-1.3,0.3c-0.5,0.1-1,0.2-1.5,0.2c-0.5,0.1-1,0.1-1.6,0.2c-0.5,0.1-1,0.2-1.4,0.4       c-0.5,0.2-0.9,0.4-1.2,0.6c-0.4,0.3-0.6,0.6-0.8,1c-0.2,0.4-0.3,0.9-0.3,1.5c0,0.6,0.1,1.1,0.3,1.5c0.2,0.4,0.5,0.7,0.9,0.9       s0.8,0.4,1.3,0.5c0.5,0.1,1,0.1,1.5,0.1c1.3,0,2.3-0.2,3-0.6c0.7-0.4,1.2-0.9,1.6-1.5c0.3-0.6,0.5-1.2,0.6-1.8       c0.1-0.6,0.1-1.1,0.1-1.5V257.3z"/>
					<path d="M378.2,245.2v3.3h0.1c0.8-1.4,1.9-2.4,3.2-3c1.3-0.6,2.7-0.9,4-0.9c1.7,0,3.2,0.2,4.3,0.7c1.1,0.5,2,1.1,2.6,2       c0.6,0.8,1.1,1.9,1.4,3.1c0.3,1.2,0.4,2.5,0.4,4v14.6h-6.5v-13.4c0-2-0.3-3.4-0.9-4.4c-0.6-1-1.7-1.4-3.2-1.4       c-1.8,0-3.1,0.5-3.8,1.6c-0.8,1.1-1.2,2.8-1.2,5.2v12.4H372v-23.7H378.2z"/>
					<path d="M411.8,245.2v4.3h-4.8v11.7c0,1.1,0.2,1.8,0.5,2.2s1.1,0.5,2.2,0.5c0.4,0,0.7,0,1.1,0c0.3,0,0.7-0.1,1-0.1v5       c-0.5,0.1-1.2,0.2-1.8,0.2c-0.7,0-1.3,0-2,0c-1,0-2-0.1-2.9-0.2c-0.9-0.1-1.7-0.4-2.4-0.8s-1.2-1-1.6-1.7       c-0.4-0.7-0.6-1.7-0.6-2.9v-14h-3.9v-4.3h3.9v-7.1h6.5v7.1H411.8z"/>
					<path d="M415.2,241.6v-5.4h6.5v5.4H415.2z M421.7,245.2v23.7h-6.5v-23.7H421.7z"/>
					<path d="M443.3,277.2v-11.3h-0.1c-0.8,1.3-1.8,2.2-3.2,2.7c-1.4,0.5-2.8,0.8-4.3,0.8c-1.1,0-2.2-0.2-3.4-0.6       c-1.2-0.4-2.2-1.1-3.2-2.1s-1.8-2.2-2.4-3.8c-0.6-1.6-1-3.5-1-5.8c0-1.6,0.2-3.2,0.6-4.7c0.4-1.5,1.1-2.9,2-4.1       c0.9-1.2,2-2.1,3.3-2.8c1.3-0.7,2.9-1.1,4.7-1.1c1.5,0,2.8,0.3,4.1,0.8c1.3,0.6,2.3,1.5,3,2.8h0.1v-3h6.2v31.9H443.3z        M432.5,259.9c0.2,0.9,0.5,1.7,0.9,2.4c0.4,0.7,1,1.3,1.7,1.7c0.7,0.4,1.6,0.6,2.7,0.6c1.1,0,2-0.2,2.7-0.6       c0.7-0.4,1.3-1,1.7-1.6s0.8-1.5,1-2.4c0.2-0.9,0.3-1.8,0.3-2.8c0-0.9-0.1-1.8-0.3-2.7c-0.2-0.9-0.5-1.7-0.9-2.5       c-0.4-0.7-1-1.3-1.7-1.8c-0.7-0.5-1.6-0.7-2.6-0.7c-1.1,0-2,0.2-2.7,0.6c-0.7,0.4-1.3,1-1.8,1.7c-0.5,0.7-0.8,1.5-1,2.4       c-0.2,0.9-0.3,1.8-0.3,2.8C432.2,258,432.3,259,432.5,259.9z"/>
					<path d="M470.6,268.9v-3.3h-0.1c-0.8,1.4-1.9,2.4-3.2,3c-1.3,0.6-2.7,0.9-4,0.9c-1.7,0-3.2-0.2-4.3-0.7c-1.1-0.5-2-1.1-2.6-1.9       c-0.6-0.8-1.1-1.9-1.4-3.1c-0.3-1.2-0.4-2.5-0.4-4v-14.6h6.5v13.4c0,2,0.3,3.4,0.9,4.4c0.6,1,1.7,1.4,3.2,1.4       c1.8,0,3.1-0.5,3.8-1.6c0.8-1.1,1.2-2.8,1.2-5.2v-12.4h6.5v23.7H470.6z"/>
					<path d="M488.7,263.2c1,0.9,2.4,1.4,4.2,1.4c1.3,0,2.4-0.3,3.4-1c0.9-0.7,1.5-1.4,1.7-2.1h5.7c-0.9,2.8-2.3,4.9-4.2,6.1       c-1.9,1.2-4.2,1.8-6.9,1.8c-1.9,0-3.5-0.3-5-0.9c-1.5-0.6-2.8-1.4-3.8-2.5c-1-1.1-1.8-2.4-2.4-3.9c-0.6-1.5-0.8-3.2-0.8-5       c0-1.8,0.3-3.4,0.9-4.9c0.6-1.5,1.4-2.8,2.5-4c1.1-1.1,2.3-2,3.8-2.6c1.5-0.6,3.1-1,4.9-1c2,0,3.8,0.4,5.3,1.2       c1.5,0.8,2.7,1.8,3.7,3.1c1,1.3,1.7,2.8,2.1,4.5c0.4,1.7,0.6,3.4,0.5,5.3h-17.1C487.1,260.7,487.7,262.3,488.7,263.2z        M496,250.8c-0.8-0.9-2-1.3-3.5-1.3c-1,0-1.9,0.2-2.6,0.5c-0.7,0.4-1.2,0.8-1.6,1.3c-0.4,0.5-0.7,1.1-0.9,1.6       c-0.2,0.6-0.3,1.1-0.3,1.6h10.6C497.3,252.9,496.8,251.6,496,250.8z"/>
					<path d="M193.5,284.8h10.9c3,0,5.1,0.9,6.3,2.6c0.7,1,1.1,2.2,1.1,3.6c0,1.6-0.5,2.9-1.4,3.9c-0.5,0.5-1.1,1-2,1.5       c1.3,0.5,2.2,1,2.9,1.7c1.1,1.1,1.7,2.6,1.7,4.5c0,1.6-0.5,3.1-1.5,4.4c-1.5,2-3.9,2.9-7.3,2.9h-10.7V284.8z M203.1,295.4       c1.5,0,2.6-0.2,3.4-0.6c1.3-0.6,1.9-1.8,1.9-3.4c0-1.6-0.7-2.7-2-3.3c-0.8-0.3-1.9-0.5-3.4-0.5h-6.1v7.8H203.1z M204.3,307       c2.1,0,3.6-0.6,4.5-1.8c0.6-0.8,0.8-1.7,0.8-2.8c0-1.8-0.8-3.1-2.5-3.7c-0.9-0.4-2-0.5-3.5-0.5h-6.8v8.8H204.3z"/>
					<path d="M216.4,291.6h2.9v3.2c0.2-0.6,0.8-1.4,1.8-2.2c0.9-0.9,2-1.3,3.2-1.3c0.1,0,0.2,0,0.3,0c0.1,0,0.4,0,0.7,0.1v3.2       c-0.2,0-0.4-0.1-0.5-0.1c-0.2,0-0.3,0-0.5,0c-1.5,0-2.7,0.5-3.6,1.5c-0.8,1-1.2,2.1-1.2,3.4v10.5h-3.1V291.6z"/>
					<path d="M238.8,292.1c1.2,0.6,2.1,1.4,2.8,2.4c0.6,0.9,1,2,1.2,3.2c0.2,0.8,0.3,2.2,0.3,4h-13.3c0.1,1.9,0.5,3.4,1.3,4.5       s2.1,1.7,3.8,1.7c1.6,0,2.9-0.5,3.8-1.6c0.5-0.6,0.9-1.3,1.1-2.1h3c-0.1,0.7-0.3,1.4-0.8,2.2c-0.5,0.8-1,1.5-1.5,2       c-0.9,0.9-2.1,1.5-3.4,1.8c-0.7,0.2-1.6,0.3-2.5,0.3c-2.3,0-4.2-0.8-5.8-2.5c-1.6-1.7-2.4-4-2.4-7c0-2.9,0.8-5.3,2.4-7.2       c1.6-1.8,3.7-2.8,6.2-2.8C236.3,291.2,237.5,291.5,238.8,292.1z M239.9,299.3c-0.1-1.3-0.4-2.4-0.9-3.2       c-0.8-1.5-2.2-2.2-4.2-2.2c-1.4,0-2.6,0.5-3.5,1.5c-0.9,1-1.5,2.3-1.5,3.9H239.9z"/>
					<path d="M247,286.5h3.1v5.1h2.9v2.5h-2.9V306c0,0.6,0.2,1.1,0.6,1.3c0.2,0.1,0.6,0.2,1.2,0.2c0.1,0,0.3,0,0.5,0s0.4,0,0.6-0.1       v2.4c-0.4,0.1-0.7,0.2-1.1,0.2c-0.4,0-0.8,0.1-1.2,0.1c-1.4,0-2.4-0.4-2.9-1.1c-0.5-0.7-0.8-1.7-0.8-2.9v-12.1h-2.5v-2.5h2.5       V286.5z"/>
					<path d="M265.6,298.8c0.7-0.1,1.2-0.4,1.4-0.9c0.1-0.3,0.2-0.7,0.2-1.2c0-1.1-0.4-1.8-1.1-2.3s-1.8-0.7-3.2-0.7       c-1.6,0-2.7,0.4-3.4,1.3c-0.4,0.5-0.6,1.2-0.7,2.1h-2.9c0.1-2.3,0.8-3.8,2.2-4.7c1.4-0.9,3-1.3,4.9-1.3c2.2,0,3.9,0.4,5.2,1.2       c1.3,0.8,2,2.1,2,3.8v10.5c0,0.3,0.1,0.6,0.2,0.8s0.4,0.3,0.8,0.3c0.1,0,0.3,0,0.5,0c0.2,0,0.4,0,0.5-0.1v2.3       c-0.5,0.1-0.8,0.2-1.1,0.3c-0.3,0-0.6,0.1-1,0.1c-1.1,0-1.8-0.4-2.3-1.1c-0.3-0.4-0.4-1-0.5-1.7c-0.6,0.8-1.5,1.5-2.7,2.1       c-1.2,0.6-2.5,0.9-3.9,0.9c-1.7,0-3.1-0.5-4.2-1.5c-1.1-1-1.6-2.3-1.6-3.9c0-1.7,0.5-3,1.6-3.9s2.4-1.5,4.2-1.7L265.6,298.8z        M259.1,307.1c0.6,0.5,1.4,0.8,2.3,0.8c1.1,0,2.1-0.2,3.1-0.8c1.7-0.8,2.6-2.2,2.6-4.1v-2.5c-0.4,0.2-0.9,0.4-1.4,0.6       s-1.2,0.3-1.7,0.3l-1.9,0.2c-1.1,0.1-2,0.4-2.5,0.7c-1,0.5-1.4,1.4-1.4,2.6C258.2,305.9,258.5,306.6,259.1,307.1z"/>
					<path d="M284.9,292.3c0.6,0.4,1.2,1,1.8,1.7v-2.3h2.8v16.6c0,2.3-0.3,4.2-1,5.5c-1.3,2.5-3.7,3.7-7.2,3.7c-2,0-3.6-0.4-5-1.3       s-2.1-2.3-2.2-4.1h3.1c0.1,0.8,0.4,1.5,0.9,1.9c0.7,0.7,1.8,1,3.3,1c2.3,0,3.9-0.8,4.6-2.5c0.4-1,0.6-2.7,0.6-5.2       c-0.6,0.9-1.4,1.6-2.2,2.1c-0.9,0.5-2,0.7-3.4,0.7c-2,0-3.7-0.7-5.2-2.1c-1.5-1.4-2.2-3.7-2.2-7c0-3.1,0.7-5.5,2.2-7.2       c1.5-1.7,3.3-2.6,5.4-2.6C282.6,291.3,283.9,291.6,284.9,292.3z M285.3,295.6c-0.9-1.1-2.1-1.6-3.6-1.6c-2.2,0-3.6,1-4.4,3       c-0.4,1.1-0.6,2.5-0.6,4.3c0,2.1,0.4,3.6,1.2,4.7c0.8,1.1,2,1.6,3.4,1.6c2.2,0,3.7-1,4.6-3c0.5-1.1,0.7-2.4,0.7-3.9       C286.7,298.4,286.2,296.7,285.3,295.6z"/>
					<path d="M293.7,291.6h2.9v2.6c0.9-1.1,1.8-1.8,2.8-2.3c1-0.5,2-0.7,3.2-0.7c2.6,0,4.4,0.9,5.3,2.7c0.5,1,0.8,2.4,0.8,4.3v11.7       h-3.1v-11.5c0-1.1-0.2-2-0.5-2.7c-0.5-1.1-1.5-1.7-3-1.7c-0.7,0-1.3,0.1-1.8,0.2c-0.8,0.3-1.6,0.8-2.2,1.5       c-0.5,0.6-0.8,1.2-1,1.9c-0.2,0.6-0.2,1.6-0.2,2.8v9.6h-3.1V291.6z"/>
					<path d="M324.1,292.1c1.2,0.6,2.1,1.4,2.8,2.4c0.6,0.9,1,2,1.2,3.2c0.2,0.8,0.3,2.2,0.3,4H315c0.1,1.9,0.5,3.4,1.3,4.5       s2.1,1.7,3.8,1.7c1.6,0,2.9-0.5,3.8-1.6c0.5-0.6,0.9-1.3,1.1-2.1h3c-0.1,0.7-0.3,1.4-0.8,2.2c-0.5,0.8-1,1.5-1.5,2       c-0.9,0.9-2.1,1.5-3.4,1.8c-0.7,0.2-1.6,0.3-2.5,0.3c-2.3,0-4.2-0.8-5.8-2.5c-1.6-1.7-2.4-4-2.4-7c0-2.9,0.8-5.3,2.4-7.2       c1.6-1.8,3.7-2.8,6.2-2.8C321.6,291.2,322.9,291.5,324.1,292.1z M325.2,299.3c-0.1-1.3-0.4-2.4-0.9-3.2       c-0.8-1.5-2.2-2.2-4.2-2.2c-1.4,0-2.6,0.5-3.5,1.5c-0.9,1-1.5,2.3-1.5,3.9H325.2z"/>
					<path d="M333.9,298.6h8.6v3.2h-8.6V298.6z"/>
					<path d="M349.5,284.8h11.2c2.2,0,4,0.6,5.4,1.9c1.4,1.3,2,3,2,5.3c0,2-0.6,3.7-1.8,5.1c-1.2,1.5-3.1,2.2-5.6,2.2h-7.8v10.6       h-3.4V284.8z M362.7,288.2c-0.7-0.4-1.8-0.5-3.1-0.5h-6.7v8.7h6.7c1.5,0,2.7-0.3,3.7-1c0.9-0.6,1.4-1.8,1.4-3.4       C364.7,290.2,364.1,288.9,362.7,288.2z"/>
					<path d="M379.6,298.8c0.7-0.1,1.2-0.4,1.4-0.9c0.1-0.3,0.2-0.7,0.2-1.2c0-1.1-0.4-1.8-1.1-2.3s-1.8-0.7-3.2-0.7       c-1.6,0-2.7,0.4-3.4,1.3c-0.4,0.5-0.6,1.2-0.7,2.1h-2.9c0.1-2.3,0.8-3.8,2.2-4.7c1.4-0.9,3-1.3,4.9-1.3c2.2,0,3.9,0.4,5.2,1.2       c1.3,0.8,2,2.1,2,3.8v10.5c0,0.3,0.1,0.6,0.2,0.8s0.4,0.3,0.8,0.3c0.1,0,0.3,0,0.5,0c0.2,0,0.4,0,0.5-0.1v2.3       c-0.5,0.1-0.8,0.2-1.1,0.3c-0.3,0-0.6,0.1-1,0.1c-1.1,0-1.8-0.4-2.3-1.1c-0.3-0.4-0.4-1-0.5-1.7c-0.6,0.8-1.5,1.5-2.7,2.1       c-1.2,0.6-2.5,0.9-3.9,0.9c-1.7,0-3.1-0.5-4.2-1.5c-1.1-1-1.6-2.3-1.6-3.9c0-1.7,0.5-3,1.6-3.9s2.4-1.5,4.2-1.7L379.6,298.8z        M373.1,307.1c0.6,0.5,1.4,0.8,2.3,0.8c1.1,0,2.1-0.2,3.1-0.8c1.7-0.8,2.6-2.2,2.6-4.1v-2.5c-0.4,0.2-0.9,0.4-1.4,0.6       s-1.2,0.3-1.7,0.3l-1.9,0.2c-1.1,0.1-2,0.4-2.5,0.7c-1,0.5-1.4,1.4-1.4,2.6C372.1,305.9,372.4,306.6,373.1,307.1z"/>
					<path d="M399.5,291.6h3.4c-0.4,1.2-1.4,3.9-2.9,8c-1.1,3.1-2.1,5.7-2.8,7.7c-1.8,4.7-3,7.5-3.8,8.5c-0.7,1-2,1.5-3.8,1.5       c-0.4,0-0.8,0-1-0.1s-0.5-0.1-0.9-0.2v-2.8c0.5,0.1,0.9,0.2,1.2,0.3c0.2,0,0.4,0.1,0.6,0.1c0.6,0,1-0.1,1.3-0.3       c0.3-0.2,0.5-0.4,0.7-0.7c0.1-0.1,0.3-0.6,0.6-1.4c0.4-0.8,0.6-1.5,0.8-1.9l-6.8-18.8h3.5l4.9,14.9L399.5,291.6z"/>
					<path d="M406.7,304.2c0.1,1,0.4,1.8,0.8,2.4c0.8,1,2.2,1.5,4.1,1.5c1.2,0,2.2-0.2,3.1-0.7c0.9-0.5,1.3-1.3,1.3-2.3       c0-0.8-0.4-1.4-1.1-1.8c-0.5-0.2-1.3-0.5-2.7-0.9l-2.5-0.6c-1.6-0.4-2.8-0.8-3.5-1.3c-1.3-0.8-2-2-2-3.5c0-1.7,0.6-3.1,1.9-4.2       c1.3-1.1,3-1.6,5.1-1.6c2.8,0,4.8,0.8,6,2.4c0.8,1,1.1,2.1,1.1,3.3h-2.9c-0.1-0.7-0.3-1.3-0.8-1.9c-0.7-0.8-2-1.2-3.8-1.2       c-1.2,0-2.1,0.2-2.7,0.7s-0.9,1-0.9,1.8c0,0.8,0.4,1.4,1.2,1.9c0.5,0.3,1.1,0.5,2.1,0.8l2.1,0.5c2.3,0.5,3.8,1.1,4.5,1.6       c1.2,0.8,1.8,2,1.8,3.7c0,1.6-0.6,3-1.9,4.2c-1.3,1.2-3.2,1.8-5.7,1.8c-2.8,0-4.7-0.6-5.9-1.9c-1.1-1.2-1.8-2.8-1.8-4.6H406.7z       "/>
					<path d="M442.2,292.2c0.5,0.3,1.2,0.9,1.9,1.8v-9.2h3v25.2h-2.8v-2.5c-0.7,1.1-1.6,1.9-2.5,2.4c-1,0.5-2.1,0.8-3.4,0.8       c-2,0-3.8-0.9-5.3-2.6c-1.5-1.7-2.2-4-2.2-6.8c0-2.7,0.7-5,2-6.9c1.4-2,3.3-2.9,5.8-2.9C440.1,291.3,441.2,291.6,442.2,292.2z        M435.3,305.9c0.8,1.3,2.2,2,4,2c1.4,0,2.6-0.6,3.5-1.8c0.9-1.2,1.4-3,1.4-5.3c0-2.3-0.5-4-1.4-5.1c-0.9-1.1-2.1-1.7-3.5-1.7       c-1.5,0-2.8,0.6-3.7,1.8c-1,1.2-1.4,2.9-1.4,5.2C434.1,302.9,434.5,304.6,435.3,305.9z"/>
					<path d="M462.5,292.1c1.2,0.6,2.1,1.4,2.8,2.4c0.6,0.9,1,2,1.2,3.2c0.2,0.8,0.3,2.2,0.3,4h-13.3c0.1,1.9,0.5,3.4,1.3,4.5       c0.8,1.1,2.1,1.7,3.8,1.7c1.6,0,2.9-0.5,3.8-1.6c0.5-0.6,0.9-1.3,1.1-2.1h3c-0.1,0.7-0.3,1.4-0.8,2.2c-0.5,0.8-1,1.5-1.5,2       c-0.9,0.9-2.1,1.5-3.4,1.8c-0.7,0.2-1.6,0.3-2.5,0.3c-2.3,0-4.2-0.8-5.8-2.5c-1.6-1.7-2.4-4-2.4-7c0-2.9,0.8-5.3,2.4-7.2       c1.6-1.8,3.7-2.8,6.2-2.8C460.1,291.2,461.3,291.5,462.5,292.1z M463.7,299.3c-0.1-1.3-0.4-2.4-0.9-3.2       c-0.8-1.5-2.2-2.2-4.2-2.2c-1.4,0-2.6,0.5-3.5,1.5c-0.9,1-1.5,2.3-1.5,3.9H463.7z"/>
					<path d="M480.5,284.8h3.1v25.1h-3.1V284.8z"/>
					<path d="M497.5,298.8c0.7-0.1,1.2-0.4,1.4-0.9c0.1-0.3,0.2-0.7,0.2-1.2c0-1.1-0.4-1.8-1.1-2.3c-0.7-0.5-1.8-0.7-3.2-0.7       c-1.6,0-2.7,0.4-3.4,1.3c-0.4,0.5-0.6,1.2-0.7,2.1h-2.9c0.1-2.3,0.8-3.8,2.2-4.7c1.4-0.9,3-1.3,4.9-1.3c2.2,0,3.9,0.4,5.2,1.2       c1.3,0.8,2,2.1,2,3.8v10.5c0,0.3,0.1,0.6,0.2,0.8s0.4,0.3,0.8,0.3c0.1,0,0.3,0,0.5,0c0.2,0,0.4,0,0.5-0.1v2.3       c-0.5,0.1-0.8,0.2-1.1,0.3c-0.2,0-0.6,0.1-1,0.1c-1.1,0-1.8-0.4-2.3-1.1c-0.3-0.4-0.4-1-0.5-1.7c-0.6,0.8-1.5,1.5-2.7,2.1       c-1.2,0.6-2.5,0.9-3.9,0.9c-1.7,0-3.1-0.5-4.2-1.5c-1.1-1-1.6-2.3-1.6-3.9c0-1.7,0.5-3,1.6-3.9c1.1-0.9,2.5-1.5,4.2-1.7       L497.5,298.8z M491,307.1c0.7,0.5,1.4,0.8,2.3,0.8c1.1,0,2.1-0.2,3.1-0.8c1.7-0.8,2.6-2.2,2.6-4.1v-2.5       c-0.4,0.2-0.9,0.4-1.4,0.6c-0.6,0.2-1.2,0.3-1.7,0.3l-1.9,0.2c-1.1,0.1-2,0.4-2.5,0.7c-1,0.5-1.4,1.4-1.4,2.6       C490.1,305.9,490.4,306.6,491,307.1z"/>
					<path d="M517.3,284.8h3.4v22.1h12.6v3h-16V284.8z"/>
					<path d="M548.5,293.4c1.6,1.6,2.4,3.9,2.4,6.9c0,2.9-0.7,5.4-2.1,7.3c-1.4,1.9-3.6,2.9-6.6,2.9c-2.5,0-4.5-0.9-6-2.6       c-1.5-1.7-2.2-4-2.2-6.9c0-3.1,0.8-5.5,2.3-7.3s3.6-2.7,6.2-2.7C544.9,291.1,546.9,291.8,548.5,293.4z M546.6,305.6       c0.7-1.5,1.1-3.3,1.1-5.1c0-1.7-0.3-3.1-0.8-4.2c-0.9-1.7-2.3-2.5-4.4-2.5c-1.9,0-3.2,0.7-4.1,2.2s-1.3,3.2-1.3,5.2       c0,1.9,0.4,3.6,1.3,4.9s2.2,1.9,4,1.9C544.5,307.9,545.8,307.1,546.6,305.6z"/>
					<path d="M554.3,284.8h3.1v3.5h-3.1V284.8z M554.3,291.7h3.1v18.2h-3.1V291.7z"/>
					<path d="M561.7,291.6h2.9v3.2c0.2-0.6,0.8-1.4,1.8-2.2c0.9-0.9,2-1.3,3.2-1.3c0.1,0,0.2,0,0.3,0c0.1,0,0.4,0,0.7,0.1v3.2       c-0.2,0-0.4-0.1-0.5-0.1c-0.2,0-0.3,0-0.5,0c-1.5,0-2.7,0.5-3.6,1.5c-0.8,1-1.2,2.1-1.2,3.4v10.5h-3.1V291.6z"/>
					<path d="M584,292.1c1.2,0.6,2.1,1.4,2.8,2.4c0.6,0.9,1,2,1.2,3.2c0.2,0.8,0.3,2.2,0.3,4H575c0.1,1.9,0.5,3.4,1.3,4.5       c0.8,1.1,2.1,1.7,3.8,1.7c1.6,0,2.9-0.5,3.8-1.6c0.5-0.6,0.9-1.3,1.1-2.1h3c-0.1,0.7-0.3,1.4-0.8,2.2c-0.5,0.8-1,1.5-1.5,2       c-0.9,0.9-2.1,1.5-3.4,1.8c-0.7,0.2-1.6,0.3-2.5,0.3c-2.3,0-4.2-0.8-5.8-2.5c-1.6-1.7-2.4-4-2.4-7c0-2.9,0.8-5.3,2.4-7.2       c1.6-1.8,3.7-2.8,6.2-2.8C581.5,291.2,582.8,291.5,584,292.1z M585.1,299.3c-0.1-1.3-0.4-2.4-0.9-3.2c-0.8-1.5-2.2-2.2-4.2-2.2       c-1.4,0-2.6,0.5-3.5,1.5c-0.9,1-1.5,2.3-1.5,3.9H585.1z"/>
					<path d="M193.5,325.8h18.2v3.1h-14.9v7.6h13.8v2.9h-13.8v8.5H212v3h-18.5V325.8z M206.7,318.9l-4.6,4.9h-2.4l3.1-4.9H206.7z"/>
					<path d="M227.3,333.6c1.3,1,2.1,2.7,2.3,5.2h-3c-0.2-1.1-0.6-2.1-1.2-2.8s-1.7-1.1-3.1-1.1c-2,0-3.4,1-4.2,2.9       c-0.5,1.2-0.8,2.8-0.8,4.6c0,1.8,0.4,3.4,1.2,4.6c0.8,1.3,2,1.9,3.7,1.9c1.3,0,2.3-0.4,3-1.2c0.7-0.8,1.3-1.8,1.5-3.2h3       c-0.3,2.4-1.2,4.2-2.6,5.3s-3.1,1.7-5.2,1.7c-2.4,0-4.3-0.9-5.7-2.6c-1.4-1.7-2.1-3.9-2.1-6.6c0-3.2,0.8-5.7,2.3-7.5       c1.6-1.8,3.5-2.7,6-2.7C224.3,332.1,226,332.6,227.3,333.6z"/>
					<path d="M246,334.4c1.6,1.6,2.4,3.9,2.4,6.9c0,2.9-0.7,5.4-2.1,7.3c-1.4,1.9-3.6,2.9-6.6,2.9c-2.5,0-4.5-0.9-6-2.6       c-1.5-1.7-2.2-4-2.2-6.9c0-3.1,0.8-5.5,2.3-7.3s3.6-2.7,6.2-2.7C242.4,332.1,244.4,332.8,246,334.4z M244.1,346.6       c0.7-1.5,1.1-3.3,1.1-5.1c0-1.7-0.3-3.1-0.8-4.2c-0.9-1.7-2.3-2.5-4.4-2.5c-1.9,0-3.2,0.7-4.1,2.2c-0.8,1.4-1.3,3.2-1.3,5.2       c0,1.9,0.4,3.6,1.3,4.9c0.8,1.3,2.2,1.9,4,1.9C241.9,348.9,243.3,348.1,244.1,346.6z"/>
					<path d="M251.8,325.8h3.1v25.1h-3.1V325.8z"/>
					<path d="M270.5,333.1c1.2,0.6,2.1,1.4,2.8,2.4c0.6,0.9,1,2,1.2,3.2c0.2,0.8,0.3,2.2,0.3,4h-13.3c0.1,1.9,0.5,3.4,1.3,4.5       s2.1,1.7,3.8,1.7c1.6,0,2.9-0.5,3.8-1.6c0.5-0.6,0.9-1.3,1.1-2.1h3c-0.1,0.7-0.3,1.4-0.8,2.2c-0.5,0.8-1,1.5-1.5,2       c-0.9,0.9-2.1,1.5-3.4,1.8c-0.7,0.2-1.6,0.3-2.5,0.3c-2.3,0-4.2-0.8-5.8-2.5c-1.6-1.7-2.4-4-2.4-7c0-2.9,0.8-5.3,2.4-7.2       c1.6-1.8,3.7-2.8,6.2-2.8C268,332.2,269.3,332.5,270.5,333.1z M271.6,340.3c-0.1-1.3-0.4-2.4-0.9-3.2c-0.8-1.5-2.2-2.2-4.2-2.2       c-1.4,0-2.6,0.5-3.5,1.5c-0.9,1-1.5,2.3-1.5,3.9H271.6z"/>
					<path d="M288.7,325.8h4.9l7.2,21.2l7.2-21.2h4.8v25.1h-3.2v-14.8c0-0.5,0-1.4,0-2.5c0-1.2,0-2.5,0-3.8l-7.2,21.2h-3.4       l-7.2-21.2v0.8c0,0.6,0,1.6,0.1,2.8s0.1,2.2,0.1,2.8v14.8h-3.2V325.8z"/>
					<path d="M317.3,325.8h3.1v3.5h-3.1V325.8z M317.3,332.7h3.1v18.2h-3.1V332.7z"/>
					<path d="M324.6,332.6h2.9v2.6c0.9-1.1,1.8-1.8,2.8-2.3c1-0.5,2-0.7,3.2-0.7c2.6,0,4.4,0.9,5.3,2.7c0.5,1,0.8,2.4,0.8,4.3v11.7       h-3.1v-11.5c0-1.1-0.2-2-0.5-2.7c-0.5-1.1-1.5-1.7-3-1.7c-0.7,0-1.3,0.1-1.8,0.2c-0.8,0.3-1.6,0.8-2.2,1.5       c-0.5,0.6-0.8,1.2-1,1.9c-0.2,0.6-0.2,1.6-0.2,2.8v9.6h-3.1V332.6z"/>
					<path d="M354.9,333.1c1.2,0.6,2.1,1.4,2.8,2.4c0.6,0.9,1,2,1.2,3.2c0.2,0.8,0.3,2.2,0.3,4h-13.3c0.1,1.9,0.5,3.4,1.3,4.5       s2.1,1.7,3.8,1.7c1.6,0,2.9-0.5,3.8-1.6c0.5-0.6,0.9-1.3,1.1-2.1h3c-0.1,0.7-0.3,1.4-0.8,2.2c-0.5,0.8-1,1.5-1.5,2       c-0.9,0.9-2.1,1.5-3.4,1.8c-0.7,0.2-1.6,0.3-2.5,0.3c-2.3,0-4.2-0.8-5.8-2.5c-1.6-1.7-2.4-4-2.4-7c0-2.9,0.8-5.3,2.4-7.2       c1.6-1.8,3.7-2.8,6.2-2.8C352.5,332.2,353.7,332.5,354.9,333.1z M356,340.3c-0.1-1.3-0.4-2.4-0.9-3.2c-0.8-1.5-2.2-2.2-4.2-2.2       c-1.4,0-2.6,0.5-3.5,1.5c-0.9,1-1.5,2.3-1.5,3.9H356z"/>
					<path d="M364.4,345.2c0.1,1,0.4,1.8,0.8,2.4c0.8,1,2.2,1.5,4.1,1.5c1.2,0,2.2-0.2,3.1-0.7c0.9-0.5,1.3-1.3,1.3-2.3       c0-0.8-0.4-1.4-1.1-1.8c-0.5-0.2-1.3-0.5-2.7-0.9l-2.5-0.6c-1.6-0.4-2.8-0.8-3.5-1.3c-1.3-0.8-2-2-2-3.5c0-1.7,0.6-3.1,1.9-4.2       c1.3-1.1,3-1.6,5.1-1.6c2.8,0,4.8,0.8,6,2.4c0.8,1,1.1,2.1,1.1,3.3h-2.9c-0.1-0.7-0.3-1.3-0.8-1.9c-0.7-0.8-2-1.2-3.8-1.2       c-1.2,0-2.1,0.2-2.7,0.7s-0.9,1-0.9,1.8c0,0.8,0.4,1.4,1.2,1.9c0.5,0.3,1.1,0.5,2.1,0.8l2.1,0.5c2.3,0.5,3.8,1.1,4.5,1.6       c1.2,0.8,1.8,2,1.8,3.7c0,1.6-0.6,3-1.9,4.2c-1.3,1.2-3.2,1.8-5.7,1.8c-2.8,0-4.7-0.6-5.9-1.9c-1.1-1.2-1.8-2.8-1.8-4.6H364.4z       "/>
					<path d="M380.6,339.6h8.6v3.2h-8.6V339.6z"/>
					<path d="M407.6,325.8v3h-8.5v22.1h-3.4v-22.1h-8.5v-3H407.6z"/>
					<path d="M416.8,333.1c1.2,0.6,2.1,1.4,2.8,2.4c0.6,0.9,1,2,1.2,3.2c0.2,0.8,0.3,2.2,0.3,4h-13.3c0.1,1.9,0.5,3.4,1.3,4.5       s2.1,1.7,3.8,1.7c1.6,0,2.9-0.5,3.8-1.6c0.5-0.6,0.9-1.3,1.1-2.1h3c-0.1,0.7-0.3,1.4-0.8,2.2c-0.5,0.8-1,1.5-1.5,2       c-0.9,0.9-2.1,1.5-3.4,1.8c-0.7,0.2-1.6,0.3-2.5,0.3c-2.3,0-4.2-0.8-5.8-2.5c-1.6-1.7-2.4-4-2.4-7c0-2.9,0.8-5.3,2.4-7.2       c1.6-1.8,3.7-2.8,6.2-2.8C414.3,332.2,415.6,332.5,416.8,333.1z M417.9,340.3c-0.1-1.3-0.4-2.4-0.9-3.2       c-0.8-1.5-2.2-2.2-4.2-2.2c-1.4,0-2.6,0.5-3.5,1.5c-0.9,1-1.5,2.3-1.5,3.9H417.9z"/>
					<path d="M424.5,325.8h3.1v25.1h-3.1V325.8z"/>
					<path d="M443.2,333.1c1.2,0.6,2.1,1.4,2.8,2.4c0.6,0.9,1,2,1.2,3.2c0.2,0.8,0.3,2.2,0.3,4h-13.3c0.1,1.9,0.5,3.4,1.3,4.5       c0.8,1.1,2.1,1.7,3.8,1.7c1.6,0,2.9-0.5,3.8-1.6c0.5-0.6,0.9-1.3,1.1-2.1h3c-0.1,0.7-0.3,1.4-0.8,2.2c-0.5,0.8-1,1.5-1.5,2       c-0.9,0.9-2.1,1.5-3.4,1.8c-0.7,0.2-1.6,0.3-2.5,0.3c-2.3,0-4.2-0.8-5.8-2.5c-1.6-1.7-2.4-4-2.4-7c0-2.9,0.8-5.3,2.4-7.2       c1.6-1.8,3.7-2.8,6.2-2.8C440.7,332.2,441.9,332.5,443.2,333.1z M444.3,340.3c-0.1-1.3-0.4-2.4-0.9-3.2       c-0.8-1.5-2.2-2.2-4.2-2.2c-1.4,0-2.6,0.5-3.5,1.5c-0.9,1-1.5,2.3-1.5,3.9H444.3z"/>
					<path d="M463.1,333.6c1.3,1,2.1,2.7,2.3,5.2h-3c-0.2-1.1-0.6-2.1-1.2-2.8s-1.7-1.1-3.1-1.1c-2,0-3.4,1-4.2,2.9       c-0.5,1.2-0.8,2.8-0.8,4.6c0,1.8,0.4,3.4,1.2,4.6c0.8,1.3,2,1.9,3.7,1.9c1.3,0,2.3-0.4,3-1.2c0.7-0.8,1.3-1.8,1.5-3.2h3       c-0.3,2.4-1.2,4.2-2.6,5.3s-3.1,1.7-5.2,1.7c-2.4,0-4.3-0.9-5.7-2.6c-1.4-1.7-2.1-3.9-2.1-6.6c0-3.2,0.8-5.7,2.3-7.5       c1.6-1.8,3.5-2.7,6-2.7C460.1,332.1,461.8,332.6,463.1,333.6z"/>
					<path d="M481.8,334.4c1.6,1.6,2.4,3.9,2.4,6.9c0,2.9-0.7,5.4-2.1,7.3c-1.4,1.9-3.6,2.9-6.6,2.9c-2.5,0-4.5-0.9-6-2.6       c-1.5-1.7-2.2-4-2.2-6.9c0-3.1,0.8-5.5,2.3-7.3s3.6-2.7,6.2-2.7C478.2,332.1,480.2,332.8,481.8,334.4z M479.9,346.6       c0.7-1.5,1.1-3.3,1.1-5.1c0-1.7-0.3-3.1-0.8-4.2c-0.9-1.7-2.3-2.5-4.4-2.5c-1.9,0-3.2,0.7-4.1,2.2s-1.3,3.2-1.3,5.2       c0,1.9,0.4,3.6,1.3,4.9s2.2,1.9,4,1.9C477.8,348.9,479.2,348.1,479.9,346.6z"/>
					<path d="M487.6,332.6h3v2.6c0.7-0.9,1.4-1.6,2-2c1-0.7,2.2-1,3.5-1c1.5,0,2.6,0.4,3.5,1.1c0.5,0.4,1,1,1.4,1.8       c0.7-1,1.5-1.7,2.4-2.2c0.9-0.5,2-0.7,3.1-0.7c2.5,0,4.1,0.9,5,2.7c0.5,1,0.7,2.2,0.7,3.9v12.2H509v-12.7       c0-1.2-0.3-2.1-0.9-2.5c-0.6-0.5-1.4-0.7-2.2-0.7c-1.2,0-2.2,0.4-3.1,1.2c-0.9,0.8-1.3,2.2-1.3,4.1v10.6h-3.1v-11.9       c0-1.2-0.1-2.1-0.4-2.7c-0.5-0.9-1.3-1.3-2.6-1.3c-1.2,0-2.2,0.5-3.2,1.4c-1,0.9-1.4,2.5-1.4,4.9v9.7h-3.1V332.6z"/>
				</g>
			</g>
			<g>
				<path d="M416.7,325.2l-4.6,4.9h-2.4l3.1-4.9H416.7z"/>
			</g>
			<g>
				<path d="M443,325.2l-4.6,4.9h-2.4l3.1-4.9H443z"/>
			</g>
		</g>
		<g>
			<g>
				<polygon class="st1" points="323.1,83.6 193.5,213.2 193.5,83.6     "/>
				<polygon class="st1" points="452.7,83.6 452.7,213.2 323.1,213.2 323.1,83.6 387.9,148.4     "/>
				<polygon class="st1" points="517.5,213.2 517.5,148.4 452.7,148.4 517.5,83.6 647,83.6     "/>
			</g>
		</g>
	</g>
</g>
<g id="Interne">
</g>
</svg>