<svg version="1.0" xmlns="http://www.w3.org/2000/svg"
 width="184.000000pt" height="177.000000pt" viewBox="0 0 184.000000 177.000000"
 preserveAspectRatio="xMidYMid meet">
<g transform="translate(0.000000,177.000000) scale(0.100000,-0.100000)"
fill="#45C3FF" stroke="none">
<path d="M231 1641 c-8 -13 -11 -247 -11 -734 0 -620 2 -716 15 -727 8 -7 22
-10 30 -6 13 5 15 91 13 743 -3 682 -4 738 -20 741 -9 2 -21 -6 -27 -17z"/>
<path d="M490 1646 c-7 -9 -8 -21 -3 -30 4 -8 148 -215 318 -460 248 -357 314
-446 330 -444 20 3 20 11 23 471 2 418 1 468 -14 474 -37 14 -39 -8 -44 -414
l-5 -396 -284 406 c-157 224 -290 407 -297 407 -6 0 -17 -7 -24 -14z"/>
<path d="M1397 1653 c-4 -3 -7 -336 -7 -740 0 -646 2 -734 15 -739 8 -4 22 -1
30 6 13 11 15 108 15 734 0 548 -3 725 -12 734 -13 13 -31 16 -41 5z"/>
<path d="M515 1108 c-3 -7 -4 -220 -3 -473 l3 -460 25 0 25 0 5 406 5 407 284
-410 c235 -338 288 -408 305 -406 11 2 22 11 24 20 2 10 -130 210 -314 473
-311 446 -343 486 -359 443z"/>
</g>
</svg>
